<svg width="421" height="202" viewBox="0 0 421 202" fill="none" xmlns="http://www.w3.org/2000/svg">
<path d="M206.09 121.181V94.7695H209.154L210.119 98.5863H209.715V109.415H210.119V121.176H206.085L206.09 121.181ZM216.051 114.169C214.276 114.169 212.729 113.759 211.412 112.944C210.095 112.124 209.066 110.979 208.329 109.495C207.588 108.015 207.222 106.286 207.222 104.316C207.222 102.347 207.593 100.575 208.329 99.0952C209.066 97.6156 210.095 96.4612 211.412 95.6271C212.729 94.7978 214.276 94.3784 216.051 94.3784C217.827 94.3784 219.471 94.7931 220.827 95.6271C222.183 96.4565 223.242 97.6156 223.993 99.0952C224.745 100.575 225.12 102.314 225.12 104.316C225.12 106.319 224.745 108.015 223.993 109.495C223.242 110.974 222.183 112.124 220.827 112.944C219.471 113.764 217.876 114.169 216.051 114.169ZM215.447 110.819C217.11 110.819 218.456 110.221 219.481 109.028C220.5 107.836 221.013 106.262 221.013 104.316C221.013 102.37 220.5 100.754 219.481 99.5429C218.456 98.3366 217.115 97.7334 215.447 97.7334C213.778 97.7334 212.476 98.3319 211.456 99.524C210.432 100.721 209.924 102.304 209.924 104.274C209.924 106.244 210.437 107.832 211.456 109.028C212.476 110.225 213.807 110.819 215.447 110.819Z" fill="#597CE9"/>
<path d="M236.174 94.7746L237.14 99.9155V113.783H233.106V94.7746H236.169H236.174ZM236.535 101.513L235.569 101.084V98.2427L235.93 97.8139C236.199 97.3474 236.623 96.8479 237.199 96.3154C237.774 95.783 238.457 95.3306 239.233 94.9536C240.014 94.5767 240.804 94.3882 241.614 94.3882C242.019 94.3882 242.399 94.4165 242.76 94.4683C243.126 94.5201 243.399 94.6097 243.589 94.7416V98.2474H242.34C240.511 98.2474 239.179 98.516 238.345 99.0437C237.511 99.5762 236.906 100.401 236.53 101.518L236.535 101.513Z" fill="#597CE9"/>
<path d="M259.927 114.169C257.936 114.169 256.185 113.759 254.663 112.944C253.146 112.124 251.97 110.979 251.136 109.495C250.302 108.015 249.887 106.286 249.887 104.316C249.887 102.347 250.302 100.575 251.136 99.0952C251.97 97.6156 253.146 96.4612 254.663 95.6271C256.18 94.7978 257.936 94.3784 259.927 94.3784C261.917 94.3784 263.702 94.7931 265.21 95.6271C266.712 96.4565 267.888 97.6156 268.737 99.0952C269.586 100.575 270.005 102.314 270.005 104.316C270.005 106.319 269.581 108.015 268.737 109.495C267.888 110.974 266.712 112.124 265.21 112.944C263.702 113.764 261.941 114.169 259.927 114.169ZM259.927 110.433C261.727 110.433 263.171 109.867 264.263 108.736C265.351 107.605 265.898 106.135 265.898 104.316C265.898 102.497 265.351 100.98 264.263 99.835C263.176 98.6947 261.727 98.1198 259.927 98.1198C258.127 98.1198 256.722 98.6853 255.634 99.8162C254.546 100.947 254 102.431 254 104.274C254 106.116 254.546 107.605 255.634 108.736C256.722 109.867 258.156 110.433 259.927 110.433Z" fill="#597CE9"/>
<path d="M276.659 98.3557V94.7698H287.908V98.3557H276.659ZM285.289 114.132C283.567 114.132 282.206 113.647 281.196 112.671C280.186 111.696 279.684 110.183 279.684 108.133V94.7745L280.45 90.4912H283.713V108.213C283.713 108.939 283.908 109.486 284.299 109.849C284.689 110.211 285.181 110.395 285.772 110.395C286.23 110.395 286.63 110.372 286.982 110.32C287.333 110.268 287.64 110.202 287.908 110.127V113.75C287.557 113.854 287.177 113.943 286.757 114.024C286.338 114.104 285.85 114.141 285.284 114.141L285.289 114.132Z" fill="#597CE9"/>
<path d="M305.412 114.169C303.421 114.169 301.67 113.759 300.148 112.944C298.626 112.124 297.45 110.979 296.621 109.495C295.787 108.015 295.372 106.286 295.372 104.316C295.372 102.347 295.792 100.575 296.621 99.0952C297.455 97.6156 298.631 96.4612 300.148 95.6271C301.665 94.7978 303.421 94.3784 305.412 94.3784C307.402 94.3784 309.188 94.7931 310.695 95.6271C312.202 96.4565 313.378 97.6156 314.222 99.0952C315.071 100.575 315.49 102.314 315.49 104.316C315.49 106.319 315.066 108.015 314.222 109.495C313.373 110.974 312.197 112.124 310.695 112.944C309.188 113.764 307.431 114.169 305.412 114.169ZM305.412 110.433C307.212 110.433 308.656 109.867 309.749 108.736C310.836 107.605 311.383 106.135 311.383 104.316C311.383 102.497 310.841 100.98 309.749 99.835C308.661 98.6947 307.217 98.1198 305.412 98.1198C303.607 98.1198 302.207 98.6853 301.119 99.8162C300.031 100.947 299.485 102.431 299.485 104.274C299.485 106.116 300.031 107.605 301.119 108.736C302.207 109.867 303.641 110.433 305.412 110.433Z" fill="#597CE9"/>
<path d="M332.189 114.169C330.174 114.169 328.423 113.745 326.944 112.902C325.466 112.058 324.325 110.894 323.515 109.415C322.71 107.935 322.305 106.22 322.305 104.274C322.305 102.328 322.71 100.613 323.515 99.1329C324.32 97.6533 325.461 96.4894 326.944 95.646C328.423 94.8025 330.169 94.3784 332.189 94.3784C334.096 94.3784 335.833 94.8779 337.389 95.8769C338.945 96.8758 340.077 98.2094 340.774 99.868L336.945 101.428C336.516 100.339 335.867 99.5146 335.008 98.9539C334.145 98.3979 333.164 98.1151 332.062 98.1151C330.452 98.1151 329.106 98.6523 328.027 99.7314C326.954 100.81 326.418 102.323 326.418 104.269C326.418 106.215 326.954 107.728 328.027 108.807C329.101 109.886 330.447 110.423 332.062 110.423C333.164 110.423 334.145 110.145 335.008 109.584C335.867 109.028 336.516 108.204 336.945 107.111L340.774 108.67C340.047 110.334 338.911 111.662 337.364 112.661C335.818 113.66 334.091 114.16 332.184 114.16L332.189 114.169Z" fill="#597CE9"/>
<path d="M356.946 114.169C354.955 114.169 353.204 113.759 351.682 112.944C350.165 112.124 348.989 110.979 348.155 109.495C347.321 108.015 346.906 106.286 346.906 104.316C346.906 102.347 347.321 100.575 348.155 99.0952C348.989 97.6156 350.165 96.4612 351.682 95.6271C353.199 94.7978 354.955 94.3784 356.946 94.3784C358.936 94.3784 360.722 94.7931 362.229 95.6271C363.732 96.4565 364.907 97.6156 365.756 99.0952C366.605 100.575 367.024 102.314 367.024 104.316C367.024 106.319 366.6 108.015 365.756 109.495C364.907 110.974 363.732 112.124 362.229 112.944C360.722 113.764 358.961 114.169 356.946 114.169ZM356.946 110.433C358.746 110.433 360.19 109.867 361.283 108.736C362.37 107.605 362.917 106.135 362.917 104.316C362.917 102.497 362.37 100.98 361.283 99.835C360.195 98.6947 358.746 98.1198 356.946 98.1198C355.146 98.1198 353.741 98.6853 352.653 99.8162C351.565 100.947 351.019 102.431 351.019 104.274C351.019 106.116 351.565 107.605 352.653 108.736C353.741 109.867 355.175 110.433 356.946 110.433Z" fill="#597CE9"/>
<path d="M378.439 113.976C377.742 113.976 377.122 113.816 376.586 113.491C376.049 113.166 375.625 112.695 375.317 112.068C375.005 111.446 374.854 110.678 374.854 109.768V87.2539H378.805V108.407C378.805 109.212 379.015 109.759 379.43 110.042C379.844 110.329 380.322 110.47 380.859 110.47V113.585C380.508 113.717 380.132 113.811 379.732 113.877C379.327 113.943 378.898 113.976 378.439 113.976Z" fill="#597CE9"/>
<path d="M128.838 114.155C127.067 114.155 125.506 113.745 124.159 112.93C122.813 112.115 121.764 110.97 121.028 109.5C120.286 108.03 119.915 106.328 119.915 104.387C119.915 102.446 120.286 100.749 121.028 99.2933C121.769 97.8372 122.813 96.7063 124.159 95.9053C125.506 95.0995 127.067 94.699 128.838 94.699C130.608 94.699 132.101 95.0995 133.399 95.9053C134.692 96.711 135.706 97.8419 136.433 99.2933C137.16 100.749 137.526 102.446 137.526 104.387C137.526 106.328 137.16 108.034 136.433 109.5C135.706 110.97 134.692 112.11 133.399 112.93C132.101 113.75 130.584 114.155 128.838 114.155ZM129.433 110.862C131.072 110.862 132.389 110.273 133.379 109.099C134.37 107.926 134.867 106.366 134.867 104.425C134.867 102.483 134.37 100.928 133.379 99.7503C132.389 98.577 131.072 97.988 129.433 97.988C127.794 97.988 126.472 98.577 125.467 99.7503C124.462 100.924 123.959 102.469 123.959 104.387C123.959 106.305 124.462 107.893 125.467 109.08C126.472 110.268 127.794 110.862 129.433 110.862ZM135.618 113.774L134.667 110.018H135.062V99.3687H134.667V87.6826H138.633V113.774H135.618Z" fill="#545456"/>
<path d="M156.205 114.155C154.249 114.155 152.522 113.755 151.029 112.949C149.536 112.143 148.38 111.012 147.56 109.556C146.741 108.1 146.331 106.404 146.331 104.463C146.331 102.521 146.741 100.782 147.56 99.3311C148.38 97.875 149.536 96.7394 151.029 95.9195C152.522 95.1043 154.249 94.6943 156.205 94.6943C158.161 94.6943 159.917 95.1043 161.4 95.9195C162.883 96.7394 164.039 97.875 164.869 99.3311C165.703 100.787 166.117 102.498 166.117 104.463C166.117 106.428 165.703 108.1 164.869 109.556C164.034 111.012 162.878 112.143 161.4 112.949C159.917 113.755 158.19 114.155 156.205 114.155ZM156.205 110.48C157.976 110.48 159.395 109.924 160.468 108.812C161.542 107.7 162.073 106.253 162.073 104.463C162.073 102.672 161.537 101.183 160.468 100.057C159.395 98.9352 157.976 98.3698 156.205 98.3698C154.434 98.3698 153.053 98.9258 151.98 100.038C150.912 101.15 150.375 102.611 150.375 104.425C150.375 106.239 150.912 107.7 151.98 108.812C153.053 109.924 154.458 110.48 156.205 110.48Z" fill="#545456"/>
<path d="M173.815 113.774V87.6826H177.781V99.3687H177.386V110.018H177.781L176.83 113.774H173.815ZM183.611 114.155C181.865 114.155 180.343 113.745 179.05 112.93C177.752 112.115 176.742 110.97 176.015 109.5C175.289 108.03 174.923 106.328 174.923 104.387C174.923 102.446 175.289 100.749 176.015 99.2933C176.742 97.8372 177.752 96.7063 179.05 95.9053C180.343 95.0995 181.865 94.699 183.611 94.699C185.357 94.699 186.977 95.0995 188.309 95.9053C189.645 96.711 190.68 97.8419 191.421 99.2933C192.163 100.749 192.533 102.446 192.533 104.387C192.533 106.328 192.163 108.034 191.421 109.5C190.68 110.97 189.64 112.11 188.309 112.93C186.972 113.75 185.406 114.155 183.611 114.155ZM183.016 110.862C184.655 110.862 185.977 110.268 186.982 109.08C187.987 107.893 188.489 106.328 188.489 104.387C188.489 102.446 187.987 100.928 186.982 99.7503C185.977 98.577 184.655 97.988 183.016 97.988C181.377 97.988 180.094 98.577 179.089 99.7503C178.084 100.924 177.581 102.483 177.581 104.425C177.581 106.366 178.084 107.926 179.089 109.099C180.094 110.273 181.401 110.862 183.016 110.862Z" fill="#545456"/>
<path d="M70.752 138.333C90.258 138.333 106.071 123.059 106.071 104.218C106.071 85.3762 90.258 70.1021 70.752 70.1021C51.2461 70.1021 35.4333 85.3762 35.4333 104.218C35.4333 123.059 51.2461 138.333 70.752 138.333Z" fill="#597CE9"/>
<path d="M63.1956 112.026C61.2882 110.047 60.3369 107.446 60.3369 104.218C60.3369 100.99 61.2882 98.389 63.1956 96.4099C64.3469 95.213 65.7274 94.3837 67.3177 93.9124V87.1553C65.2006 87.4804 63.259 88.1165 61.5028 89.0825C58.8442 90.5386 56.7855 92.5601 55.3269 95.1517C53.8683 97.7434 53.1366 100.787 53.1366 104.289C53.1366 107.79 53.8635 110.768 55.3269 113.359C56.7855 115.951 58.8442 117.963 61.5028 119.396C63.259 120.343 65.2006 120.969 67.3177 121.29V114.528C65.7274 114.057 64.3469 113.227 63.1956 112.031V112.026Z" fill="#F9FAFE"/>
<path d="M86.143 95.1472C84.66 92.5555 82.6014 90.534 79.9671 89.078C78.2353 88.1214 76.3035 87.4853 74.1864 87.1602V93.9268C75.7864 94.4074 77.1621 95.2414 78.3085 96.443C80.2159 98.4457 81.1672 101.056 81.1672 104.284C81.1672 107.512 80.2159 110.047 78.3085 112.026C77.1621 113.213 75.7864 114.038 74.1864 114.514V121.281C76.3035 120.96 78.2353 120.333 79.9671 119.391C82.6014 117.959 84.66 115.946 86.143 113.355C87.626 110.763 88.3675 107.743 88.3675 104.284C88.3675 100.825 87.626 97.7389 86.143 95.1472Z" fill="#F9FAFE"/>
<path d="M70.752 108.459C73.1768 108.459 75.1425 106.56 75.1425 104.218C75.1425 101.876 73.1768 99.9771 70.752 99.9771C68.3273 99.9771 66.3616 101.876 66.3616 104.218C66.3616 106.56 68.3273 108.459 70.752 108.459Z" fill="#F9FAFE"/>
</svg>
